<svg width="292" height="524" viewBox="0 0 292 524" fill="none" xmlns="http://www.w3.org/2000/svg">
<path fill-rule="evenodd" clip-rule="evenodd" d="M0 72.2197C0 66.5834 2.71083 61.294 7.27848 58.018L86.34 1.31264C90.9415 -1.98774 97.3333 1.31516 97.3333 6.99335V206.35H194.667V73.7098C194.667 67.9266 199.336 63.2383 205.095 63.2383L281.571 63.2383C287.331 63.2383 292 67.9266 292 73.7099L292 448.941C292 454.434 289.424 459.607 285.048 462.903L205.79 522.591C201.207 526.043 194.667 522.759 194.667 517.006V315.04L97.3333 314.717V450.686C97.3333 456.47 92.6643 461.158 86.9048 461.158H10.4286C4.66903 461.158 0 456.47 0 450.686V72.2197Z" fill="white"/>
</svg>
